<svg width="426" height="426" viewBox="0 0 426 426" fill="none" xmlns="http://www.w3.org/2000/svg">
<path d="M425.197 0H0V425.197H425.197V0Z" fill="#FBF3A0"/>
<g style="mix-blend-mode:multiply" opacity="0.88">
<path d="M0 42.812V42.174H425.197V42.812H0Z" fill="#90C0EF"/>
</g>
<g style="mix-blend-mode:multiply" opacity="0.88">
<path d="M0 21.553V20.914H425.197V21.553H0Z" fill="#90C0EF"/>
</g>
<g style="mix-blend-mode:multiply" opacity="0.88">
<path d="M0 64.072V63.434H425.197V64.072H0Z" fill="#90C0EF"/>
</g>
<g style="mix-blend-mode:multiply" opacity="0.88">
<path d="M0 106.592V105.953H425.197V106.592H0Z" fill="#90C0EF"/>
</g>
<g style="mix-blend-mode:multiply" opacity="0.88">
<path d="M0 149.111V148.473H425.197V149.111H0Z" fill="#90C0EF"/>
</g>
<g style="mix-blend-mode:multiply" opacity="0.88">
<path d="M0 191.631V190.992H425.197V191.631H0Z" fill="#90C0EF"/>
</g>
<g style="mix-blend-mode:multiply" opacity="0.88">
<path d="M0 234.15V233.512H425.197V234.15H0Z" fill="#90C0EF"/>
</g>
<g style="mix-blend-mode:multiply" opacity="0.88">
<path d="M0 276.67V276.031H425.197V276.67H0Z" fill="#90C0EF"/>
</g>
<g style="mix-blend-mode:multiply" opacity="0.88">
<path d="M0 319.189V318.551H425.197V319.189H0Z" fill="#90C0EF"/>
</g>
<g style="mix-blend-mode:multiply" opacity="0.88">
<path d="M0 361.709V361.07H425.197V361.709H0Z" fill="#90C0EF"/>
</g>
<g style="mix-blend-mode:multiply" opacity="0.88">
<path d="M0 404.228V403.59H425.197V404.228H0Z" fill="#90C0EF"/>
</g>
<g style="mix-blend-mode:multiply" opacity="0.88">
<path d="M0 0.319V0H425.197V0.319H0Z" fill="#90C0EF"/>
</g>
<g style="mix-blend-mode:multiply" opacity="0.88">
<path d="M0 425.197V424.878H425.197V425.197H0Z" fill="#90C0EF"/>
</g>
<g style="mix-blend-mode:multiply" opacity="0.88">
<path d="M0 85.332V84.692H425.197V85.332H0Z" fill="#90C0EF"/>
</g>
<g style="mix-blend-mode:multiply" opacity="0.88">
<path d="M0 127.853V127.214H425.197V127.853H0Z" fill="#90C0EF"/>
</g>
<g style="mix-blend-mode:multiply" opacity="0.88">
<path d="M0 170.37V169.733H425.197V170.37H0Z" fill="#90C0EF"/>
</g>
<g style="mix-blend-mode:multiply" opacity="0.88">
<path d="M0 212.891V212.254H425.197V212.891H0Z" fill="#90C0EF"/>
</g>
<g style="mix-blend-mode:multiply" opacity="0.88">
<path d="M0 255.409V254.772H425.197V255.409H0Z" fill="#90C0EF"/>
</g>
<g style="mix-blend-mode:multiply" opacity="0.88">
<path d="M0 297.928V297.291H425.197V297.928H0Z" fill="#90C0EF"/>
</g>
<g style="mix-blend-mode:multiply" opacity="0.88">
<path d="M0 340.449V339.811H425.197V340.449H0Z" fill="#90C0EF"/>
</g>
<g style="mix-blend-mode:multiply" opacity="0.88">
<path d="M0 382.969V382.329H425.197V382.969H0Z" fill="#90C0EF"/>
</g>
<g style="mix-blend-mode:multiply" opacity="0.31">
<path d="M60.484 425.197H59.527V0H60.484V425.197Z" fill="#FF0000"/>
</g>
<g style="mix-blend-mode:multiply" opacity="0.31">
<path d="M62.398 425.197H61.441V0H62.398V425.197Z" fill="#FF0000"/>
</g>
</svg>
